<svg xmlns="http://www.w3.org/2000/svg" viewBox="0 0 659.29 632.84"><defs><style>.cls-1{fill:#c7bdd5;}.cls-2{fill:none;stroke:#000;stroke-miterlimit:10;}</style></defs><g id="Calque_2" data-name="Calque 2"><g id="Calque_1-2" data-name="Calque 1"><path class="cls-1" d="M160.46,505.92c3.51-6,6.75-11.54,10.41-17.78,1.53.49,3.84,1.19,6.13,2,47.94,16,95.85,16.44,142.68-3.16,52.53-22,87.67-60.08,100.63-116.55,4.83-21.07,2.71-42.07-3.52-62.68a4.44,4.44,0,0,0-1.75-2.49c.35,3.39.84,6.77,1,10.16,2.4,41.1-16,71.86-49.77,92.78-48.63,30.13-99.73,29.44-149.62,3.87-53.4-27.38-84.41-72.71-95.24-131.44-8-43.58-.36-85.16,19-124.77.44-.9,1-1.71,1.53-2.58.25-.44.46-.9.68-1.32,3.07,2.29,5.52,4.55,8.35,6.12s5.83,2.29,8.82,3.41c-3.11,8.9-6.77,17.65-9.23,26.72-16.72,61.57-6,117.61,36.91,165.43C219,388.65,259.31,405,306.78,402A100,100,0,0,0,340,393.74,89.25,89.25,0,0,1,288,390.49c-37.12-13.56-59.48-40.84-68.74-78.49-12-48.78,0-93,30-132.22,35.91-47,84.58-71.42,143.09-76.8,40.21-3.7,78.64,3.33,115.4,19.85,1.94.87,3.82,1.88,5.86,2.89-2.12,3-4.27,5.49-5.82,8.33a76.37,76.37,0,0,0-3.48,8.61c-11.17-3.55-22.08-7.71-33.33-10.48C417.39,119,366.15,125,318.82,153.78c-39.42,24-65.74,58.33-75.27,104.3a107.76,107.76,0,0,0,5.13,61.81c-.53-4.27-1.36-8.53-1.54-12.82-1.41-33.09,11.68-60,35.92-81.7,21.65-19.39,47.71-28.94,76.33-31.2,60.12-4.74,108.57,18.51,145.9,64.5,44.45,54.78,55.41,117.17,37.2,184.86-3.19,11.84-8.31,23.16-12.59,34.7a18.33,18.33,0,0,1-1.59,3l-16.26-10.05c4-15.23,9.4-30.76,12-46.75,8.56-53.07-4-101.17-36.94-143.71-20.81-26.88-47.55-45.48-80.23-55.06-24.74-7.26-49.67-6.73-74.53-.22a14.49,14.49,0,0,0-2.35,1.1c7.27,0,14.25-.63,21.09.11,39.22,4.24,66.51,26.06,83.87,60.19,20,39.3,20,80.36,3.43,120.52-25.46,61.62-72.75,98.49-137,113.72-48.05,11.4-94.62,5-139.65-14.5A12.79,12.79,0,0,1,160.46,505.92ZM333,383.62c43.88-2.15,73.95-34.57,71.9-77.53-1.9-39.77-36.3-69.94-77.2-68.13-42.19,1.86-70.46,37.59-69.37,74C259.56,354.61,294.21,384.45,333,383.62Z"/><path class="cls-1" d="M484.38,514.06l16.79,11.47C459.29,584.64,366.2,642,270,631.62,361.58,628.56,429.88,583.19,484.38,514.06Z"/><path class="cls-1" d="M186.78,118.67l-16.16-12.32C214.29,45.69,305.54-7,391.27.77c-41.72,1.84-79.89,14.77-115.35,36.42C240.67,58.71,211.3,86.6,186.78,118.67Z"/><path class="cls-1" d="M119.41,456.24,107.84,473a291.36,291.36,0,0,1-80.68-97.13C9.05,340.53-.81,303.14.05,263.3,10.58,346,57.52,406.12,119.41,456.24Z"/><path class="cls-1" d="M552.08,175.06l12.82-15.68c28,22.45,49.93,50.52,66.26,83C651,281.85,661.25,323.59,659,368,652.52,287.34,612,225.58,552.08,175.06Z"/><path class="cls-1" d="M116.72,481.86c0-11.35,10.16-21.52,21.74-21.7,11.9-.19,22,10,22.14,22.42.16,11.56-10,21.57-21.76,21.52A22,22,0,0,1,116.72,481.86Z"/><path class="cls-1" d="M535,170c-12.05-.14-22-10-21.71-21.48.28-12.48,9.7-21.74,22-21.63A21.56,21.56,0,1,1,535,170Z"/><path class="cls-1" d="M144.54,133.13a17.82,17.82,0,0,1,18-18,18.35,18.35,0,1,1-.07,36.69C152.58,152,144.47,143.5,144.54,133.13Z"/><path class="cls-1" d="M506.75,516.27c-9.42-.08-17.18-8.12-17.22-17.84a17.72,17.72,0,0,1,17.82-17.77c9.4.19,17.59,8.39,17.62,17.63A18.05,18.05,0,0,1,506.75,516.27Z"/><path class="cls-1" d="M177.41,256.28c4.37,40.37,17.41,75.91,45.16,105.06C192.1,333.37,174.43,299.85,177.41,256.28Z"/><path class="cls-1" d="M446.46,266.57c21.6,12.79,43.64,62.46,42.21,96.31-2-9.32-3.44-18-5.89-26.35a202.35,202.35,0,0,0-9.15-24.75,214.25,214.25,0,0,0-12.37-23.89C456.78,280.45,451.37,273.56,446.46,266.57Z"/><path class="cls-1" d="M369.5,429.72c-25.74,25.22-57.13,35.17-92.49,34.34C310.39,459.52,341.78,449.62,369.5,429.72Z"/><path class="cls-1" d="M297.66,192.65c27.47-24.29,59.79-33.94,96.14-31.1C359.35,164.41,326.65,172.6,297.66,192.65Z"/><path class="cls-2" d="M333,383.62c-38.76.83-73.41-29-74.67-71.61-1.09-36.46,27.18-72.19,69.37-74,40.9-1.81,75.3,28.36,77.2,68.13C406.92,349.05,376.85,381.47,333,383.62Z"/></g></g></svg>